<?xml version="1.0" encoding="utf-8"?><!-- Generator: Adobe Illustrator 21.1.0, SVG Export Plug-In . SVG Version: 6.00 Build 0)  -->
<svg enable-background="new 0 0 24 24" id="Слой_3" version="1.1"  viewBox="0 0 24 24" x="0px"
	 xmlns="http://www.w3.org/2000/svg" y="0px" xml:space="preserve">
<g>
	<path d="M12,2c1,0,3,0.2,5.1,1.4c2.2,1.2,3.3,2.9,3.7,3.7c1.2,2.1,1.4,4.2,1.4,5.1c0,3.2-1.5,5.4-2,6c-1.8,2.5-4.2,3.4-5.1,3.7
		c-0.1,0-0.4,0.1-0.5-0.1c-0.1-0.1-0.2-0.3-0.2-0.4c-0.1-0.7,0-2.2,0-2.8c0-0.4-0.1-1.1-0.7-1.9c0.5,0,2.5-0.1,3.7-1.6
		c0.4-0.5,0.6-1,0.7-1.4c0.2-0.5,0.6-2,0-3.6C18,9.6,17.7,9.2,17.5,9c0.3-0.8,0.3-1.7-0.1-2.7c-0.3,0-0.7,0-1.1,0.1
		c-0.8,0.2-1.4,0.6-1.7,0.9C13.9,7.1,13.1,7,12,7C11.3,7,10.5,7,9.4,7.3C9.1,7,8.5,6.6,7.8,6.4C7.3,6.3,6.9,6.3,6.6,6.2
		C6.2,7.2,6.2,8.2,6.5,9C6.3,9.2,6,9.6,5.7,10.2c-0.7,1.6-0.2,3.1,0,3.5c0.1,0.4,0.3,0.9,0.7,1.4c1.2,1.5,3.2,1.6,3.7,1.7
		c-0.3,0.3-0.6,0.8-0.7,1.4c-0.1,0.1-0.3,0.1-0.6,0.2c-0.2,0-1,0.2-1.6-0.2c-0.2-0.1-0.4-0.4-0.7-0.8c-0.2-0.3-0.3-0.4-0.4-0.5
		c-0.2-0.1-0.4-0.4-0.9-0.5c-0.3,0-0.7-0.1-0.7,0.1c0,0,0,0,0,0c0,0.2,0.4,0.3,0.6,0.6c0.7,0.9,0.4,0.5,0.9,1.4
		c0.3,0.5,0.5,0.7,0.6,0.8c0.6,0.5,1.4,0.5,1.8,0.5c0.4,0,0.8-0.1,1-0.1c0,0.1,0.1,1.7,0,2.1c0,0.1-0.1,0.2-0.1,0.2
		C9.2,22,9,22,8.8,22c-0.6-0.2-1.6-0.6-2.6-1.3c-2.7-1.8-3.6-4.4-3.9-5.1c-0.2-0.5-0.5-1.7-0.5-3.3c0-2.6,1-4.5,1.4-5.1
		C4.4,5,6.1,3.8,6.9,3.4C9,2.2,11,2,12,2z"/>
</g>
</svg>
