<?xml version="1.0" encoding="utf-8"?>
<!-- Generator: Adobe Illustrator 21.1.0, SVG Export Plug-In . SVG Version: 6.00 Build 0)  -->
<svg version="1.1" id="Слой_1" xmlns="http://www.w3.org/2000/svg"  x="0px" y="0px"
	 viewBox="0 0 24.4 24" style="enable-background:new 0 0 24.4 24;" xml:space="preserve">
<path d="M16.2,21.8H7.8c-3.1,0-5.7-2.5-5.7-5.7V7.8c0-3.1,2.5-5.7,5.7-5.7h8.3c3.1,0,5.7,2.5,5.7,5.7v8.3
	C21.8,19.3,19.3,21.8,16.2,21.8z M8.6,3.5c-2.8,0-5.1,2.3-5.1,5.1v6.8c0,2.8,2.3,5.1,5.1,5.1h6.8c2.9,0,5.1-2.2,5.1-5.1V8.6
	c0-2.8-2.3-5.1-5.1-5.1H8.6z M12,17.1c-2.8,0-5.1-2.3-5.1-5.1c0-2.8,2.3-5.1,5.1-5.1s5.1,2.3,5.1,5.1c0,1.3-0.5,2.6-1.4,3.6
	C14.7,16.6,13.4,17.1,12,17.1z M12,8.2c-2,0-3.8,1.8-3.8,3.8c0,2.1,1.7,3.8,3.8,3.8c1,0,2-0.4,2.7-1.1c0.7-0.7,1.1-1.7,1.1-2.7
	C15.8,9.9,14.1,8.2,12,8.2z M17.5,5.7c-0.5,0-0.8,0.4-0.8,0.8c0,0.5,0.4,0.8,0.8,0.8s0.8-0.4,0.8-0.8C18.4,6,18,5.7,17.5,5.7z"/>
</svg>
