<?xml version="1.0" encoding="utf-8"?><!-- Generator: Adobe Illustrator 21.1.0, SVG Export Plug-In . SVG Version: 6.00 Build 0)  -->
<svg enable-background="new 0 0 24 24" id="Слой_3" version="1.1"  viewBox="0 0 24 24" x="0px"
	 xmlns="http://www.w3.org/2000/svg" y="0px" xml:space="preserve">
<path d="M12,12.1c-1.3,0-2.5-0.5-3.4-1.4C7.6,9.8,7.2,8.6,7.2,7.3c0-1.3,0.5-2.5,1.4-3.4c0.9-0.9,2.1-1.4,3.4-1.4s2.5,0.5,3.4,1.4
	c0.9,0.9,1.4,2.1,1.4,3.4c0,1.3-0.5,2.5-1.4,3.4C14.5,11.6,13.3,12.1,12,12.1z M12,4.9c-0.7,0-1.2,0.2-1.7,0.7
	c-0.5,0.5-0.7,1-0.7,1.7c0,0.7,0.2,1.2,0.7,1.7c0.5,0.5,1,0.7,1.7,0.7c0.7,0,1.2-0.2,1.7-0.7c0.5-0.5,0.7-1,0.7-1.7
	c0-0.7-0.2-1.2-0.7-1.7C13.2,5.1,12.7,4.9,12,4.9z M17.6,12.7c0.1,0.2,0.1,0.4,0.2,0.5c0,0.2,0,0.3,0,0.4c0,0.1-0.1,0.3-0.3,0.4
	c-0.1,0.1-0.3,0.3-0.5,0.4s-0.4,0.3-0.7,0.4c-0.8,0.5-1.9,0.9-3.4,1l0.8,0.8l2.9,2.9c0.2,0.2,0.3,0.5,0.3,0.8c0,0.3-0.1,0.6-0.3,0.8
	l-0.1,0.1c-0.2,0.2-0.5,0.3-0.8,0.3c-0.3,0-0.6-0.1-0.8-0.3c-0.5-0.5-1.4-1.4-2.9-2.9l-2.9,2.9c-0.2,0.2-0.5,0.3-0.8,0.3
	c-0.3,0-0.6-0.1-0.8-0.3l-0.1-0.1c-0.2-0.2-0.3-0.5-0.3-0.8c0-0.3,0.1-0.6,0.3-0.8l2.9-2.9l0.8-0.8c-1.4-0.1-2.6-0.5-3.4-1
	c-0.3-0.2-0.5-0.3-0.7-0.4s-0.3-0.2-0.5-0.4c-0.1-0.1-0.2-0.3-0.3-0.4c0-0.1-0.1-0.3,0-0.4c0-0.2,0.1-0.3,0.2-0.5
	c0.1-0.1,0.2-0.3,0.3-0.4c0.1-0.1,0.3-0.2,0.4-0.2c0.2,0,0.4,0,0.6,0c0.2,0.1,0.5,0.2,0.7,0.4c0,0,0.1,0.1,0.2,0.1
	c0.1,0,0.2,0.1,0.5,0.3c0.2,0.1,0.5,0.2,0.7,0.3c0.3,0.1,0.6,0.2,1,0.3c0.4,0.1,0.8,0.1,1.2,0.1c0.6,0,1.3-0.1,1.9-0.3
	c0.6-0.2,1-0.4,1.3-0.5l0.4-0.3c0.2-0.2,0.5-0.3,0.7-0.4s0.4-0.1,0.6,0c0.2,0,0.3,0.1,0.4,0.2C17.4,12.4,17.5,12.6,17.6,12.7z"/>
</svg>
