<?xml version="1.0" encoding="utf-8"?>
<svg version="1.1" id="Слой_3" xmlns="http://www.w3.org/2000/svg" xmlns:xlink="http://www.w3.org/1999/xlink" x="0px" y="0px"
	 viewBox="0 0 24 24" enable-background="new 0 0 24 24" xml:space="preserve">
<path d="M15.4,16.7L17,8.8c0.1-0.3,0-0.6-0.1-0.7c-0.1-0.1-0.3-0.2-0.6-0.1l-9.9,3.8C6.2,11.9,6.1,12,6,12.1c-0.1,0.1-0.1,0.2,0,0.3
	s0.2,0.2,0.4,0.2l2.5,0.8l5.9-3.7c0.2-0.1,0.3-0.1,0.4-0.1c0.1,0,0,0.1,0,0.2l-4.7,4.3l-0.2,2.6c0.2,0,0.3-0.1,0.5-0.3l1.2-1.2
	l2.6,1.9C14.9,17.4,15.2,17.3,15.4,16.7z M22.3,12c0,1.4-0.3,2.7-0.8,4c-0.5,1.3-1.3,2.4-2.2,3.3s-2,1.6-3.3,2.2
	c-1.3,0.5-2.6,0.8-4,0.8S9.3,22,8,21.4c-1.3-0.5-2.4-1.3-3.3-2.2s-1.6-2-2.2-3.3s-0.8-2.6-0.8-4S2,9.3,2.6,8s1.3-2.4,2.2-3.3
	s2-1.6,3.3-2.2s2.6-0.8,4-0.8s2.7,0.3,4,0.8s2.4,1.3,3.3,2.2s1.6,2,2.2,3.3C22,9.3,22.3,10.6,22.3,12z"/>
</svg>
