<?xml version="1.0" encoding="utf-8"?>
<!-- Generator: Adobe Illustrator 21.1.0, SVG Export Plug-In . SVG Version: 6.00 Build 0)  -->
<svg version="1.1" xmlns="http://www.w3.org/2000/svg" xmlns:xlink="http://www.w3.org/1999/xlink" x="0px" y="0px"
	 viewBox="0 0 24 24" enable-background="new 0 0 24 24" xml:space="preserve">
<g id="Слой_3">
</g>
<g id="Слой_2">
	<path d="M18.1,6.9l3.2,0c0,0,0.5,0,0.5,0.4S21.7,8.1,21.1,9c-0.6,0.9-1.8,2.3-2,2.7c-0.3,0.4-0.7,1.5-0.1,2.1
		c0.6,0.6,2.4,1.8,2.6,2.7c0.3,0.9,0.1,1.1-0.5,1.1c-0.5,0-2.1,0.1-3.2,0.1s-2.3-1.8-2.5-1.9s-0.6-0.8-1.2-0.6s-0.5,1.5-0.6,1.8
		c-0.1,0.4-0.2,0.7-1.1,0.7s-3,0.1-4.7-1.4c-1.8-1.5-3.6-4-4.1-5.1S2.3,7.9,2.2,7.5C2.1,7.2,2.3,6.9,2.8,6.9s1.9,0,2.3,0
		c0,0,0.6-0.1,0.8,0.1c0.2,0.2,1.1,2.1,1.4,2.7c0.3,0.5,1.1,2.1,1.6,2.1s0.6-0.1,0.8-0.8S10,8,9.6,7.6S8.7,7.2,8.7,7.2
		s0-0.4,0.5-0.6c0.5-0.2,3.5-0.4,4,0c0.5,0.4,0.5,1.3,0.4,1.8c-0.1,0.5-0.2,3.3,0.3,3.4s1.3-0.7,1.7-1.7s1.2-2.9,1.6-3
		C17.8,6.9,18.1,6.9,18.1,6.9z"/>
</g>
</svg>
